<svg xmlns="http://www.w3.org/2000/svg" viewBox="0 0 1600 900">
<line x1="518.1" y1="135.8" x2="424.7" y2="317.8" stroke="#ffffff" stroke-opacity="0.054" stroke-width="1"/>
<line x1="585.1" y1="52.2" x2="580.6" y2="244.9" stroke="#ffffff" stroke-opacity="0.05" stroke-width="1"/>
<line x1="111.8" y1="81.6" x2="220.1" y2="529.9" stroke="#ffffff" stroke-opacity="0.039" stroke-width="1"/>
<line x1="357.2" y1="564.7" x2="-14.0" y2="626.2" stroke="#ffffff" stroke-opacity="0.049" stroke-width="1"/>
<line x1="1562.0" y1="41.9" x2="1310.6" y2="161.7" stroke="#ffffff" stroke-opacity="0.04" stroke-width="1"/>
<line x1="188.5" y1="277.6" x2="-13.8" y2="409.5" stroke="#ffffff" stroke-opacity="0.055" stroke-width="1"/>
<line x1="1022.3" y1="335.2" x2="992.2" y2="534.2" stroke="#ffffff" stroke-opacity="0.037" stroke-width="1"/>
<line x1="329.5" y1="612.4" x2="394.2" y2="891.8" stroke="#ffffff" stroke-opacity="0.055" stroke-width="1"/>
<line x1="725.1" y1="269.8" x2="391.6" y2="521.2" stroke="#ffffff" stroke-opacity="0.044" stroke-width="1"/>
<line x1="919.1" y1="472.7" x2="523.6" y2="636.3" stroke="#ffffff" stroke-opacity="0.045" stroke-width="1"/>
<line x1="1568.3" y1="106.3" x2="1679.6" y2="529.3" stroke="#ffffff" stroke-opacity="0.04" stroke-width="1"/>
<line x1="782.3" y1="35.3" x2="560.5" y2="415.2" stroke="#ffffff" stroke-opacity="0.055" stroke-width="1"/>
<line x1="1400.8" y1="282.4" x2="1180.8" y2="594.8" stroke="#ffffff" stroke-opacity="0.055" stroke-width="1"/>
<line x1="729.9" y1="756.0" x2="393.9" y2="815.0" stroke="#ffffff" stroke-opacity="0.058" stroke-width="1"/>
<line x1="992.0" y1="414.0" x2="1467.7" y2="604.7" stroke="#ff0000" stroke-opacity="0.205" stroke-width="1.25"/>
<line x1="992.0" y1="414.0" x2="1547.4" y2="389.9" stroke="#ff0000" stroke-opacity="0.168" stroke-width="1.25"/>
<line x1="992.0" y1="414.0" x2="614.8" y2="743.3" stroke="#ff0000" stroke-opacity="0.142" stroke-width="1.25"/>
<line x1="992.0" y1="414.0" x2="680.7" y2="490.4" stroke="#ff0000" stroke-opacity="0.152" stroke-width="1.25"/>
<line x1="992.0" y1="414.0" x2="1492.2" y2="608.2" stroke="#ff0000" stroke-opacity="0.153" stroke-width="1.25"/>
<line x1="992.0" y1="414.0" x2="998.0" y2="814.7" stroke="#ff0000" stroke-opacity="0.227" stroke-width="1.25"/>
<circle cx="992.0" cy="414.0" r="2.4" fill="#ff0000" fill-opacity="0.5"/>
<rect x="120.0" y="620.0" width="90.0" height="90.0" fill="none" stroke="#ffffff" stroke-opacity="0.05" stroke-width="1" transform="rotate(12 165.0 665.0)"/>
<rect x="1300.0" y="120.0" width="60.0" height="60.0" fill="none" stroke="#ffffff" stroke-opacity="0.06" stroke-width="1" transform="rotate(-18 1330.0 150.0)"/>
<rect x="1420.0" y="660.0" width="130.0" height="80.0" fill="none" stroke="#ff0000" stroke-opacity="0.1" stroke-width="1" transform="rotate(6 1485.0 700.0)"/>
<rect x="60.0" y="90.0" width="46.0" height="46.0" fill="none" stroke="#ffffff" stroke-opacity="0.05" stroke-width="1"/>
</svg>